<?xml version="1.0" encoding="utf-8"?>
<!-- Generator: Adobe Illustrator 26.0.1, SVG Export Plug-In . SVG Version: 6.00 Build 0)  -->
<svg version="1.1" id="レイヤー_1" xmlns="http://www.w3.org/2000/svg" xmlns:xlink="http://www.w3.org/1999/xlink" x="0px"
	 y="0px" viewBox="0 0 425.18 190.01" style="enable-background:new 0 0 425.18 190.01;" xml:space="preserve">
<style type="text/css">
	.st0{fill:#0086D1;}
	.st1{fill:#FFFFFF;}
</style>
<g>
	<path d="M33.6,159.53c-4.93,0-8.95,4.02-8.95,8.95v21.54h6.41v-12.14h15.81v-6.41H31.05v-3c0-1.38,1.16-2.54,2.54-2.54h13.27v-6.41
		H33.6"/>
	<rect x="114.22" y="159.53" width="6.41" height="30.48"/>
	<path d="M194.46,181.06v-21.54h-6.41v21.54c0,4.93,4.02,8.95,8.96,8.95h13.27v-6.41h-13.27
		C195.61,183.61,194.46,182.47,194.46,181.06"/>
	<path d="M392.15,171.47h-4.8c-1.5,0-2.55-0.95-2.55-1.81v-1.91c0-0.86,1.05-1.81,2.55-1.81h12.59v-6.41h-12.59
		c-4.93,0-8.95,3.69-8.95,8.22v1.91c0,4.53,4.02,8.22,8.95,8.22h4.8c1.35,0,2.54,0.89,2.54,1.91v1.92c0,1.01-1.19,1.9-2.54,1.9
		h-12.59v6.41h12.59c4.93,0,8.95-3.72,8.95-8.3v-1.92C401.1,175.2,397.08,171.47,392.15,171.47"/>
	<path d="M301.1,159.53h-1.92c-2.21,0-4.18,0.9-5.74,2.24c-1.57-1.34-3.54-2.24-5.75-2.24h-1.92c-4.94,0-8.95,4.02-8.95,8.95v21.54
		h6.41v-21.54c0-1.38,1.16-2.54,2.54-2.54h1.92c1.38,0,2.54,1.16,2.54,2.54v21.54h6.41v-21.54c0-1.38,1.17-2.54,2.54-2.54h1.92
		c1.38,0,2.55,1.16,2.55,2.54v21.54h6.41v-21.54C310.05,163.54,306.03,159.53,301.1,159.53"/>
	<g>
		<path class="st0" d="M36,0C16.15,0,0,14.34,0,31.97v81.09c0,17.63,16.15,31.96,36,31.96h353.18c19.85,0,36-14.34,36-31.96V31.97
			c0-17.63-16.15-31.97-36-31.97H36z"/>
		<g>
			<path class="st1" d="M278.77,117.36c0,2.02-2.05,3.73-4.47,3.73c-2.42,0-4.46-1.71-4.46-3.73V15.25h-11.26v102.11
				c0,2.02-2.04,3.73-4.46,3.73c-2.43,0-4.48-1.71-4.48-3.73V15.25h-11.25v102.11c0,7.06,7.05,12.8,15.72,12.8
				c3.58,0,6.99-1.01,9.86-2.92c0,0,0.12-0.08,0.23-0.16c0.12,0.08,0.23,0.16,0.23,0.16c2.87,1.91,6.29,2.92,9.87,2.92
				c8.67,0,15.73-5.74,15.73-12.8V15.25h-0.42h-10.84V117.36"/>
			<path class="st1" d="M314.7,41.02h-13.3h-0.42v9.06h13.72c2.46,0,4.46,1.68,4.46,3.74c0,0,0,15.46,0,16.27c-0.71,0-4.46,0-4.46,0
				c-8.67,0-15.73,5.74-15.73,12.8v34.11c0,7.06,7.06,12.8,15.73,12.8h15.73V53.82C330.42,46.76,323.37,41.02,314.7,41.02z
				 M319.16,120.73c-0.71,0-4.46,0-4.46,0c-2.42,0-4.47-1.71-4.47-3.74V82.88c0-2.06,2.01-3.74,4.47-3.74c0,0,4.25,0,4.46,0
				C319.16,79.96,319.16,119.91,319.16,120.73z"/>
			<path class="st1" d="M82.44,39.98c-8.67,0-15.72,5.74-15.72,12.8v65.23c0,7.06,7.05,12.8,15.72,12.8
				c8.67,0,15.73-5.74,15.73-12.8V52.78C98.17,45.72,91.12,39.98,82.44,39.98z M86.91,118.01c0,2.03-2.04,3.74-4.46,3.74
				c-2.42,0-4.47-1.71-4.47-3.74V52.78c0-2.06,2-3.74,4.47-3.74c2.46,0,4.47,1.68,4.47,3.74V118.01z"/>
			<path class="st1" d="M178.53,41.02h-10.83v88.77h11.26V41.02H178.53z"/>
			<path class="st1" d="M133.17,17.78c0,0-0.12,0.08-0.23,0.16c-0.12-0.08-0.23-0.16-0.23-0.16c-2.88-1.9-6.29-2.91-9.86-2.91
				c-8.67,0-15.73,5.74-15.73,12.8v102.12h11.25V27.67c0-2.02,2.05-3.73,4.47-3.73s4.47,1.71,4.47,3.73v102.12h11.26V27.67
				c0-2.02,2.05-3.73,4.47-3.73c2.42,0,4.47,1.71,4.47,3.73v102.12h11.26V27.67c0-7.06-7.06-12.8-15.73-12.8
				C139.46,14.88,136.05,15.88,133.17,17.78z"/>
			<path class="st1" d="M399.99,106.47v11.54c0,2.03-2.04,3.74-4.46,3.74c-2.42,0-4.47-1.69-4.47-3.7l-0.05-1.09
				c0,0,0-25.04,0-25.86c0.81,0,20.19,0,20.19,0V52.78c0-7.06-7.05-12.8-15.72-12.8c-8.68,0-15.74,5.74-15.74,12.8v64.16l0.06,1.09
				c0,7.03,7.05,12.77,15.72,12.77c8.67,0,15.73-5.74,15.73-12.8v-11.54H399.99z M391.01,52.78c0-2.06,2-3.74,4.46-3.74
				c2.47,0,4.47,1.68,4.47,3.74c0,0,0,28.44,0,29.26c-0.74,0-8.2,0-8.94,0C391.01,81.22,391.01,52.78,391.01,52.78z"/>
			<path class="st1" d="M208.09,62.2c0,3.5-1.79,9.35-3.82,12.52c0,0-0.35,0.54-0.64,1c-0.3-0.46-0.65-1-0.65-1
				c-2.03-3.16-3.82-9.01-3.82-12.52V40.97h-11.26V62.2c0,4.68,2.13,11.67,4.86,15.91c0,0,4.39,6.83,4.66,7.26
				c-0.28,0.43-4.65,7.24-4.65,7.24c-2.72,4.23-4.86,11.22-4.86,15.91v21.27h11.25v-21.27c0-3.5,1.79-9.35,3.83-12.52
				c0,0,0.34-0.53,0.64-0.98c0.29,0.45,0.63,0.98,0.63,0.98c2.04,3.17,3.83,9.02,3.83,12.52v21.27h11.26v-21.27
				c0-4.68-2.14-11.67-4.86-15.91c0,0-4.38-6.81-4.66-7.24c0.28-0.43,4.66-7.26,4.66-7.26c2.73-4.24,4.86-11.23,4.86-15.91V40.97
				h-0.42h-10.84V62.2"/>
			<path class="st1" d="M36,14.22c-12.01,0-21.78,7.96-21.78,17.75v81.09c0,9.79,9.77,17.75,21.78,17.75
				c12.01,0,21.78-7.22,21.78-16.09V86.94H46.52v27.77c0,3.82-4.82,7.04-10.52,7.04c-5.81,0-10.53-3.9-10.53-8.69V31.97
				c0-4.79,4.72-8.69,10.53-8.69c5.7,0,10.52,3.23,10.52,7.04v22.94h11.26V30.32C57.78,21.44,48.01,14.22,36,14.22"/>
			<path class="st1" d="M361.57,79.77c0,4.27-0.91,11.27-2.03,15.62l-4.06,14.91c0,0-0.2,0.74-0.39,1.47
				c-0.69-2.56-4.58-16.84-4.58-16.84c-1.01-3.97-1.9-11.06-1.9-15.16V41.02h-11.26v38.72c0,4.93,0.96,12.49,2.19,17.22l0.27,0.94
				c0,0,9.59,31.88,9.59,31.88h11.37l9.76-32.48c1.29-4.95,2.3-12.64,2.3-17.52V41.02h-0.42h-10.83V79.77"/>
			<path class="st1" d="M173.07,12.65l-9.81,9.81l10.11,10.11l10.12-10.11l-10.12-10.11L173.07,12.65z"/>
		</g>
	</g>
</g>
<g>
</g>
<g>
</g>
<g>
</g>
<g>
</g>
<g>
</g>
<g>
</g>
</svg>
