<svg xmlns="http://www.w3.org/2000/svg" width="269.625" height="25.188" viewBox="0 0 269.625 25.188">
  <defs>
    <style>
      .cls-1 {
        fill: #f6f6f6;
        fill-rule: evenodd;
      }
    </style>
  </defs>
  <path id="logo.svg" class="cls-1" d="M504.985,50.855q2.391,2.391,8.6,2.391a14.624,14.624,0,0,0,5.86-1.021,8.1,8.1,0,0,0,3.619-3,7.718,7.718,0,0,0,1.3-4.316,6.844,6.844,0,0,0-.971-3.6,7.434,7.434,0,0,0-3.105-2.7,31.571,31.571,0,0,0-7.064-2.15,6.155,6.155,0,0,1-2.523-.9,1.356,1.356,0,0,1-.548-1.046,1.7,1.7,0,0,1,.664-1.353,3.016,3.016,0,0,1,1.976-.556,3.312,3.312,0,0,1,3.685,3.138l7.089-.415a7.492,7.492,0,0,0-2.913-5.52q-2.45-1.735-7.114-1.735a15.269,15.269,0,0,0-5.985.955,7.218,7.218,0,0,0-3.271,2.623,6.381,6.381,0,0,0-1.087,3.544,5.942,5.942,0,0,0,2.125,4.7q2.109,1.843,7.056,2.955a9.609,9.609,0,0,1,3.851,1.411,2.232,2.232,0,0,1,.83,1.693,2.263,2.263,0,0,1-.871,1.752,3.677,3.677,0,0,1-2.482.755,3.974,3.974,0,0,1-3.32-1.478,5.457,5.457,0,0,1-.947-2.656l-7.155.448A9.426,9.426,0,0,0,504.985,50.855Zm25.5,1.976h7.537V28.493h-7.537V52.831Zm15.653,0h19.257V46.837H553.656V28.493h-7.52V52.831Zm27.438,0h8.152l9.037-24.338H583.13l-5.408,17.515-5.478-17.515h-7.861Zm21.669,0h20.52V47.319H602.78v-4.8h11.7V37.557h-11.7V33.689H615.4v-5.2H595.243V52.831Zm33.584,0V42.953h0.664a3.16,3.16,0,0,1,1.843.565,5.675,5.675,0,0,1,1.361,1.876l4.02,7.438h8.5l-3.641-7.052a9.6,9.6,0,0,0-1.054-1.512,7.554,7.554,0,0,0-1.2-1.28,7.5,7.5,0,0,0-1.957-.9A9.1,9.1,0,0,0,640,41.127a7.122,7.122,0,0,0,2.11-9.82,5.674,5.674,0,0,0-2.972-2.216,18.208,18.208,0,0,0-5.329-.6H621.273V52.831h7.554Zm0-19.424h3.3a4.52,4.52,0,0,1,2.806.631,2.465,2.465,0,0,1,.274,3.221,1.986,1.986,0,0,1-1.22.764,11.316,11.316,0,0,1-1.992.332h-3.171V33.407Zm36.252,19.424h19.257V46.837H672.6V28.493h-7.52V52.831Zm25.7,0h7.537V28.493h-7.537V52.831Zm15.7,0h7.072V39.467l9.114,13.363h7.089V28.493h-7.089V41.958L713.5,28.493h-7.022V52.831Zm29.665,0h7.521V46.892l3.885-4.07,5.132,10.009h9.261l-9.28-15.151,8.882-9.186h-10l-7.877,9.2v-9.2h-7.521V52.831Zm28.538,0H771.9V46.057h-7.221v6.773Z" transform="translate(-502.281 -28.063)"/>
</svg>
