<svg xmlns="http://www.w3.org/2000/svg" viewBox="0 0 696.17 104.33"><g id="レイヤー_2" data-name="レイヤー 2"><g id="brainsbase"><path d="M67.33,61s14-1.92,14-22.16S47.08,17.71,47.08,17.71H34.64V12L0,28.79l16.67,75.38h39.5c8.42,0,24.91-8,24.91-24S67.33,61,67.33,61ZM47.08,24.12a19.52,19.52,0,0,1,10,17.42c0,12.58-10,16.58-10,16.58H34.64v-34Zm0,73.5H34.64V64.29H47.08A18.82,18.82,0,0,1,57.17,81.54C57.17,94.29,47.08,97.62,47.08,97.62Z"/><polygon points="132.96 46.25 110.46 56.75 110.46 35.13 86.58 46.13 98.46 104.13 110.08 104 110.08 63.88 121.46 63.75 126.96 69.25 144.21 58.38 132.96 46.25"/><path d="M195.33,89.12l-5,1.88s.17-38.12.17-40.21-2.08-16.17-18.33-16.17l-28.71,5V46.5h22.62l2.36,11.93C162.92,60.1,137.25,68.78,137.25,86c0,19.25,15.42,18.08,15.42,18.08L176.46,99l1,5,18-.12ZM156.25,90c-2.08-5.6.15-14.57,13.72-23.82l5.19,26.23C170,93.17,158,94.52,156.25,90Z"/><polygon points="203.56 58.21 224.78 58.21 224.83 34.54 201.17 46.29 203.56 58.21"/><polygon points="212.75 103.96 224.67 104.04 224.76 63.71 204.66 63.71 212.75 103.96"/><path d="M275.71,45.88,253.58,56.62l-.12-10.87-21.13,15.5L241.46,104h12V63.75h21.62L269.83,104h11.88s11.37-32.38,11.37-40.5S279.33,45.88,275.71,45.88Z"/><polygon points="288.08 46.38 322.96 28.75 316.58 17 322.21 0 287.71 17.25 292.71 28.13 288.08 46.38"/><path d="M333.83,57.75c0-10.37,28.25-11.75,28.25-11.75V40.5c-24.87,0-63.25,3.38-63.25,18S333,76.62,333,87.12s-28.25,10.76-28.25,10.76v6.37c24.75,0,64-4.13,64-18.25S333.83,68.12,333.83,57.75Z"/><circle cx="391.83" cy="72" r="12.12"/><path d="M478.54,61.21s14-1.92,14-22.17-34.25-21.16-34.25-21.16l-12.73,0,0-5.71L411.21,29l16.66,75.33h18s13.08,0,21.5,0,24.92-8,24.92-24S478.54,61.21,478.54,61.21ZM458.29,24.29a19.52,19.52,0,0,1,10,17.42c0,12.58-10,16.58-10,16.58H445.71l-.13-34Zm0,73.5H445.85l-.12-33.33h12.56a18.82,18.82,0,0,1,10.08,17.25C468.37,94.46,458.29,97.79,458.29,97.79Z"/><path d="M553.33,89.12l-5,1.88s.17-38.12.17-40.21-2.08-16.17-18.33-16.17l-28.71,5V46.5h22.62l2.36,11.93C520.92,60.1,495.25,68.78,495.25,86c0,19.25,15.42,18.08,15.42,18.08L534.46,99l1,5,18-.12ZM514.25,90c-2.08-5.6.15-14.57,13.72-23.82l5.19,26.23C528,93.17,516,94.52,514.25,90Z"/><path d="M589.83,56.75c0-10.37,28.25-11.75,28.25-11.75V39.5c-24.87,0-63.25,3.38-63.25,18S589,75.62,589,86.12s-28.25,10.76-28.25,10.76v6.37c24.75,0,64-4.13,64-18.25S589.83,67.12,589.83,56.75Z"/><path d="M695.86,64.68l-2.32.39S692,89,673.17,89c-14.84-.5-18.84-11-18.84-11s38.17-23.16,38.42-23.42c-5.39-12.21-17.13-20.08-31.33-20.08a34.75,34.75,0,1,0,34.75,34.75A35.11,35.11,0,0,0,695.86,64.68Zm-43.19-15.3c11.66-6.84,21.5,6.66,21.5,6.66L649.83,70.21S641,56.21,652.67,49.38Z"/></g></g></svg>