<svg xmlns="http://www.w3.org/2000/svg" width="93.125" height="27.387" viewBox="0 0 93.125 27.387"><g transform="translate(-86.25 -143.389)"><path d="M472.585,172.147a.607.607,0,0,1-.608.608H470.13a.14.14,0,0,0-.13.13h0v1.477h0a.14.14,0,0,0,.13.13h9.494c.022,0,.043-.022.065-.022s.022-.022.043-.043a.08.08,0,0,0,.022-.065h0v-1.477h0c0-.022,0-.043-.022-.043-.022-.022-.022-.043-.043-.043a.08.08,0,0,0-.065-.022h-1.847a.607.607,0,0,1-.608-.608V152.225a.607.607,0,0,1,.608-.608h1.847a.08.08,0,0,0,.065-.022c.022-.022.043-.022.043-.043a.067.067,0,0,0,.022-.043h0V150.03h0a.08.08,0,0,0-.022-.065c0-.022-.022-.022-.043-.043a.08.08,0,0,0-.065-.022H470.13a.14.14,0,0,0-.13.13h0v1.477h0a.14.14,0,0,0,.13.13h1.847a.607.607,0,0,1,.608.608Z" transform="translate(-300.38 -5.096)" fill="#191919"/><path d="M372.671,163.118a.08.08,0,0,0-.022-.065c0-.022-.022-.022-.043-.043a.08.08,0,0,0-.065-.022H360.722a.14.14,0,0,0-.13.13h0v1.477h0a.14.14,0,0,0,.13.13h4.866a.607.607,0,0,1,.608.608h.043v6.322a.021.021,0,0,0-.022.022,9.421,9.421,0,0,1-4.171.978c-5.41,0-9.8-4.714-9.8-10.537s4.389-10.537,9.8-10.537a9.663,9.663,0,0,1,8.017,4.475l-.174-6.213c-.022-.043-.065-.043-.109-.043H359.375a12.318,12.318,0,0,0,0,24.636h10.45a.241.241,0,0,0,.239-.239v-8.842a.607.607,0,0,1,.608-.608h1.847a.08.08,0,0,0,.065-.022c.022-.022.043-.022.043-.043a.067.067,0,0,0,.022-.043h0l.022-1.521Z" transform="translate(-204.18 -5.018)" fill="#191919"/><path d="M243.827,152.125v14.165l-10.863-16.446c-.022-.043-.065-.043-.109-.043H224.73a.14.14,0,0,0-.13.13h0v1.477h0a.14.14,0,0,0,.13.13h1.238a.607.607,0,0,1,.608.608V172.09a.607.607,0,0,1-.608.608h-1.108a.241.241,0,0,0-.239.239v1.238a.241.241,0,0,0,.239.239h7.148a.241.241,0,0,0,.239-.239v-1.238a.241.241,0,0,0-.239-.239H230.9a.607.607,0,0,1-.608-.608V153.863l13.578,20.509c.022.043.065.043.109.043h3.454a.14.14,0,0,0,.13-.13v-22.16a.607.607,0,0,1,.608-.608h1.108a.241.241,0,0,0,.239-.239v-1.238a.241.241,0,0,0-.239-.239h-7.148a.241.241,0,0,0-.239.239v1.238a.241.241,0,0,0,.239.239h1.108a.589.589,0,0,1,.587.608Z" transform="translate(-108.293 -5.018)" fill="#191919"/><path d="M113.613,156.818a15.558,15.558,0,0,1-4,6.365c-3.954,3.954-8.842,5.475-10.906,3.389-2.086-2.086-.565-6.952,3.389-10.906,3.737-3.737,8.321-5.3,10.558-3.672a13.771,13.771,0,0,0-7.647-7.647c1.629,2.238.065,6.822-3.672,10.558-3.954,3.954-8.842,5.475-10.906,3.389-2.086-2.086-.565-6.952,3.389-10.906a15.331,15.331,0,0,1,6.365-4,13.718,13.718,0,1,0,13.426,13.426Z" transform="translate(0 0)" fill="#191919"/></g></svg>