<?xml version="1.0" encoding="UTF-8" standalone="no"?>
<svg xmlns="http://www.w3.org/2000/svg" height="35.392mm" width="50mm" version="1.1" viewBox="0 0 50 35.391541">
 <g transform="translate(-38.478 -115.8)">
  <g>
   <path d="m156.37 64.269h6.9365v6.8506h-6.9365z" transform="matrix(.82759 .56133 -.80871 .58821 0 0)" stroke-width=".065652" fill="#8cc63f"/>
   <path d="m63.026 115.8 13.027 8.8356-2.7701 2.0148-13.027-8.8356zm-8.0972 5.8894 2.9255 1.9843-10.814 7.8655-2.9255-1.9843zm4.3055 2.9202c-3.6047 2.6218-7.2093 5.2437-10.814 7.8655l8.7765 5.9528 4.2617-3.0997-5.851-3.9685 6.5523-4.7658zm-0.20382-5.9037-2.77 2.0147 8.611 5.8405-6.7653 4.9207 4.4161 2.9953 3.9953-2.906 1.3247 0.89848-9.3756 6.8193 4.4157 2.995 9.3756-6.8193 1.4351 0.97337 2.77-2.0147-7.1757-4.867 2.7698-2.0149z" stroke-width=".85295" fill="#231f20"/>
   <path d="m81.4 145.62v5.5723h7.0783v-1.3554h-5.7229v-2.8614h4.3675v0.75302h-3.012v1.3554h4.3675v-3.4639h-7.0783zm-8.5843 0v5.5723h1.3554v-2.5602h4.3675v2.5602h1.3554v-3.91h-5.7229v-1.6566zm-8.5843 0v5.5723h7.0783v-1.3554h-5.7229v-2.8614h5.7229v-1.3554zm-8.5843 0v5.5723h1.3554v-4.2169h5.7229v-1.3554zm-8.5843 0v5.5723h7.0783v-1.3554h-5.7229v-2.8614h4.3675v0.75302h-3.012v1.3554h4.3675v-3.4639h-7.0783zm-8.5843 0v5.5723h7.0783v-1.3554h-5.725v-4.2169z" stroke-width=".15060" fill="#231f20"/>
  </g>
 </g>
</svg>
