				<svg xmlns="http://www.w3.org/2000/svg" viewBox="0 0 129.7 25.12"><g id="レイヤー_2" data-name="レイヤー 2"><g id="レイヤー_1-2" data-name="レイヤー 1"><path class="cls-1" d="M56.72.93h1.11c.45,0,.8.16.8.67s-.33.73-.82.73H56.72Zm0,1.87H58a1.12,1.12,0,0,0,1.19-1.2A1.11,1.11,0,0,0,58,.46H56.18v4h.54Z"></path><path class="cls-1" d="M60.37,4.5h-.49V1.56h.47v.49h0a1,1,0,0,1,.83-.57h.12V2h-.18a.75.75,0,0,0-.76.78Z"></path><path class="cls-1" d="M62,3c0-.4.14-1.13.85-1.13s.86.73.86,1.13-.15,1.12-.86,1.12S62,3.42,62,3Zm-.51,0a1.38,1.38,0,1,0,2.73,0,1.38,1.38,0,1,0-2.73,0Z"></path><path class="cls-1" d="M65.19,3c0-.37,0-1.1.8-1.1s.79.77.79,1.25c0,.78-.49,1-.8,1C65.44,4.16,65.19,3.67,65.19,3Zm2.07-1.46h-.47V2a1,1,0,0,0-.89-.51c-.78,0-1.23.64-1.23,1.46S65,4.59,66,4.59a.87.87,0,0,0,.79-.42v.12c0,.35,0,1-.84,1a.61.61,0,0,1-.66-.47h-.5a1,1,0,0,0,1.13.88,1.26,1.26,0,0,0,1.37-1.48Z"></path><path class="cls-1" d="M68.45,4.5H68V1.56h.47v.49h0a1,1,0,0,1,.83-.57h.13V2H69.2a.74.74,0,0,0-.75.78Z"></path><path class="cls-1" d="M70.15,2.8A.86.86,0,0,1,71,1.92c.61,0,.8.42.83.88Zm1.61.78a.74.74,0,0,1-.76.58c-.57,0-.85-.36-.85-1H72.3c0-1-.42-1.71-1.27-1.71s-1.41.72-1.41,1.63a1.33,1.33,0,0,0,1.32,1.48,1.28,1.28,0,0,0,.8-.21,1.26,1.26,0,0,0,.52-.8Z"></path><path class="cls-1" d="M74.56,2.4c0-.19-.08-.5-.7-.5-.15,0-.58.05-.58.42s.15.3.53.39l.5.13c.61.15.82.37.82.77a1,1,0,0,1-1.16,1c-1.17,0-1.25-.68-1.27-1h.48c0,.23.09.6.78.6.36,0,.68-.14.68-.47s-.16-.31-.59-.42l-.57-.14c-.41-.1-.68-.31-.68-.71,0-.65.53-.94,1.11-.94,1,0,1.13.77,1.13.92Z"></path><path class="cls-1" d="M77.37,2.4c0-.19-.07-.5-.7-.5-.15,0-.58.05-.58.42s.15.3.53.39l.5.13c.61.15.83.37.83.77,0,.61-.5,1-1.17,1-1.16,0-1.25-.68-1.26-1H76c0,.23.09.6.79.6.35,0,.67-.14.67-.47s-.16-.31-.58-.42l-.58-.14c-.41-.1-.68-.31-.68-.71,0-.65.54-.94,1.12-.94,1,0,1.12.77,1.12.92Z"></path><path class="cls-1" d="M79,4.5h-.49V1.56H79ZM78.53,1V.46H79V1Z"></path><path class="cls-1" d="M81.63,1.56h.54L81.05,4.5h-.53L79.44,1.56H80L80.78,4h0Z"></path><path class="cls-1" d="M82.82,2.8a.87.87,0,0,1,.82-.88c.6,0,.79.42.82.88Zm1.62.78a.75.75,0,0,1-.76.58c-.57,0-.86-.36-.86-1H85c0-1-.41-1.71-1.26-1.71S82.3,2.2,82.3,3.11a1.33,1.33,0,0,0,1.31,1.48,1.23,1.23,0,0,0,.8-.21,1.29,1.29,0,0,0,.53-.8Z"></path><path class="cls-1" d="M88,2.84l.65-1.77h0l.6,1.77Zm1.46.49.4,1.17h.59L89,.46h-.62l-1.52,4h.56l.43-1.17Z"></path><path class="cls-1" d="M93.28,4.5h-.5V2.69c0-.51-.14-.77-.63-.77-.28,0-.77.18-.77,1V4.5h-.5V1.56h.47V2h0a1.06,1.06,0,0,1,.89-.5.93.93,0,0,1,1,1Z"></path><path class="cls-1" d="M94.52,4.5H94V1.56h.5ZM94,1V.46h.5V1Z"></path><path class="cls-1" d="M95.26,1.56h.47V2h0a1,1,0,0,1,.89-.5.82.82,0,0,1,.78.47,1.07,1.07,0,0,1,.9-.47.89.89,0,0,1,.91,1v2h-.49V2.6c0-.4-.13-.68-.55-.68a.75.75,0,0,0-.7.79V4.5H97v-2c0-.25-.09-.55-.46-.55s-.78.18-.78,1V4.5h-.49Z"></path><path class="cls-1" d="M101.74,3.48c0,.4-.45.7-.91.7s-.54-.19-.54-.51.39-.45.63-.48c.62-.08.74-.13.82-.19Zm-1.36-1a.59.59,0,0,1,.68-.57c.47,0,.69.16.69.47s-.14.34-.26.35l-.81.1a.89.89,0,0,0-.9.93.84.84,0,0,0,.92.85,1.34,1.34,0,0,0,1.07-.48c0,.23.08.45.52.45a1,1,0,0,0,.27-.06V4.14l-.16,0a.16.16,0,0,1-.17-.18V2.3c0-.76-.85-.82-1.09-.82-.72,0-1.19.27-1.21,1Z"></path><path class="cls-1" d="M103.68,2V3.88c0,.23.2.23.3.23h.17V4.5l-.37,0c-.49,0-.59-.27-.59-.63V2h-.4V1.56h.4V.74h.49v.82h.47V2Z"></path><path class="cls-1" d="M105.14,4.5h-.49V1.56h.49ZM104.65,1V.46h.49V1Z"></path><path class="cls-1" d="M106.23,3c0-.4.15-1.13.85-1.13s.86.73.86,1.13-.15,1.12-.86,1.12S106.23,3.42,106.23,3Zm-.51,0a1.38,1.38,0,1,0,2.73,0,1.38,1.38,0,1,0-2.73,0Z"></path><path class="cls-1" d="M111.41,4.5h-.49V2.69c0-.51-.15-.77-.64-.77-.28,0-.77.18-.77,1V4.5H109V1.56h.47V2h0a1.08,1.08,0,0,1,.89-.5.92.92,0,0,1,1,1Z"></path><path class="cls-1" d="M114.83,4.5h-.57l-1.05-4h.59l.75,3.29h0l.91-3.29h.59L117,3.75h0l.76-3.29h.6l-1.07,4h-.57l-.92-3.34h0Z"></path><path class="cls-1" d="M119,3c0-.4.15-1.13.85-1.13s.86.73.86,1.13-.15,1.12-.86,1.12S119,3.42,119,3Zm-.51,0a1.38,1.38,0,1,0,2.73,0,1.38,1.38,0,1,0-2.73,0Z"></path><path class="cls-1" d="M122.32,4.5h-.5V1.56h.47v.49h0a1,1,0,0,1,.83-.57h.13V2h-.19a.74.74,0,0,0-.75.78Z"></path><path class="cls-1" d="M126.16,4.5h-.63L124.61,3l-.41.37V4.5h-.48v-4h.48V2.8l1.27-1.24h.63L125,2.66Z"></path><path class="cls-1" d="M128.19,2.4c0-.19-.07-.5-.69-.5-.16,0-.59.05-.59.42s.16.3.54.39l.49.13c.62.15.83.37.83.77,0,.61-.5,1-1.17,1-1.16,0-1.24-.68-1.26-1h.48c0,.23.08.6.78.6.35,0,.67-.14.67-.47s-.16-.31-.58-.42l-.58-.14c-.41-.1-.68-.31-.68-.71,0-.65.54-.94,1.12-.94,1,0,1.12.77,1.12.92Z"></path><path class="cls-1" d="M11.23,23.61a1.14,1.14,0,1,1,1.14,1.07A1.08,1.08,0,0,1,11.23,23.61Z"></path><path class="cls-1" d="M40.1,23.59a1.14,1.14,0,1,1,1.14,1.09A1.09,1.09,0,0,1,40.1,23.59Z"></path><path class="cls-1" d="M8.53,16.48c-.59-.09-.59-.68,0-.62,2.89.28,5.93-.44,5.93-5.12,0-3.61-2.31-4.92-4.59-4.92a11.25,11.25,0,0,0-2.52.34V22.32c0,.74,1.66,1.74,3.11,1.74.31,0,.31.6,0,.6-1.11,0-4-.26-5.25-.26s-3.93.26-4.94.26c-.24,0-.38-.6,0-.6,1.55,0,2.52-1,2.52-1.74V6.91c0-.84-.59-1.34-2.21-1.53-.28,0-.24-.59,0-.59,3.9,0,6.38-.25,10.42-.25,4.38,0,8.11,1.87,8.11,6.17C19.05,16.36,14.84,17.58,8.53,16.48Z"></path><path class="cls-1" d="M29.59,16.72h-6.8l3.35-8.64ZM27.69,0s-8.35,21.75-8.35,21.75A3.81,3.81,0,0,1,16,24.05a.31.31,0,0,0,0,.61c1.65,0,2.41-.26,3.59-.26s2.55.26,4.07.26c.27,0,.38-.58,0-.61-2.11-.13-3.21-1.21-2.8-2.33L22.34,18h7.77l1.83,4.53c.37.86-.76,1.53-2.07,1.53-.39,0-.35.64,0,.64,1.07,0,3.62-.26,4.9-.26s3.62.26,4.56.26c.3,0,.41-.64,0-.64a2.88,2.88,0,0,1-2.55-1.79Z"></path><path class="cls-1" d="M64,10.94,60,24.32c-.13.45-.38.77-.81.77s-.7-.35-.86-.72L54.2,13.2,50.93,24.32c-.16.47-.35.77-.81.77s-.7-.3-.86-.72L44,10.06c-.19-.58-.9-.93-1.84-.93-.33,0-.24-.5,0-.5.76,0,2.84.2,3.9.2s2.86-.2,3.7-.2c.27,0,.29.5,0,.5-1.08,0-1.86.45-1.7,1l3.33,9.22,2.18-7.92L53,10.06a1.87,1.87,0,0,0-1.84-.93c-.32,0-.24-.5,0-.5.75,0,2.83.2,3.89.2s2.86-.2,3.7-.2c.27,0,.3.5,0,.5-1.08,0-1.87.43-1.71,1l3.32,9.22L62.74,11c.27-1-1-1.69-2-1.86a.25.25,0,0,1,0-.48c1.06,0,2,.2,3,.2s1.76-.2,2.7-.2a.24.24,0,0,1,0,.48A3.24,3.24,0,0,0,64,10.94Z"></path><path class="cls-1" d="M78.32,17.23c0,4-2.19,6.94-4.89,6.94-3.25,0-5.17-3.67-5.17-8.1,0-4.12,2.06-6.76,4.92-6.76C76.43,9.31,78.32,12.7,78.32,17.23Zm3.76-.55c0-5.21-3.76-8.33-8.76-8.33-4.84,0-8.76,3.1-8.76,8.33s3.92,8.44,8.76,8.44C78.4,25.12,82.08,21.9,82.08,16.68Z"></path><path class="cls-1" d="M93,13.1c0,2.09-1.08,3.47-3.3,3.47-1.73,0-2-.13-2-.52V9.8a6.53,6.53,0,0,1,1.62-.27C91.75,9.53,93,10.78,93,13.1Zm6.19,11.43a4.47,4.47,0,0,1-3.08-1.87c-1.27-1.57-2.6-4.47-3.38-5.34a4.05,4.05,0,0,0,3.81-4C96.53,10,94,8.63,91,8.63c-3.13,0-5,.2-8.75.2-.19,0-.22.45,0,.47,1.27.15,1.73.45,1.73,1.13V23.1c0,.6-.76,1.33-2,1.4-.28,0-.17.47,0,.47.78,0,2.84-.19,3.92-.19S89.18,25,90,25c.27,0,.27-.44,0-.47-1.13-.1-2.43-.8-2.43-1.4V17.34a8.21,8.21,0,0,0,1.35.18c.51.42,2.51,4.41,3.27,5.39C93.56,24.56,95,25,99.15,25A.22.22,0,1,0,99.18,24.53Z"></path><path class="cls-1" d="M116.88,24.92c-.68,0-2.52-.21-3.63-.21-.91,0-2.94.21-3.89.21-.11,0-.19-.48,0-.48,1,0,1.54-.63,1.13-1.13L105.66,17v6.06c0,.55.86,1.36,1.89,1.36.33,0,.25.48,0,.48-.81,0-2.62-.21-3.56-.21s-2.89.21-3.89.21c-.22,0-.22-.48,0-.48,1.05,0,2-.81,2-1.36V10.15c0-.57-.51-1-1.76-1-.24,0-.27-.5,0-.5.92,0,2.79.2,3.6.2,1.05,0,2.89-.2,3.64-.2.3,0,.3.5,0,.5-1.3,0-1.89.47-1.89,1v5.27l5.51-4.77c.6-.52,0-1.32-1.35-1.52-.27-.05-.24-.5,0-.5.79,0,2.38.2,3.19.2s2.16-.2,2.89-.2c.22,0,.27.47,0,.5a6.77,6.77,0,0,0-2.81,1.12l-5,4.35,6.64,8.63a4,4,0,0,0,2.19,1.24C117.2,24.49,117.09,24.92,116.88,24.92Z"></path><path class="cls-1" d="M123.35,25.12a19.16,19.16,0,0,1-6-1.16.33.33,0,0,1-.24-.32V19.52a.27.27,0,0,1,.54-.08c.78,3.14,2.51,4.7,4.92,4.7,2.73,0,3.91-1.11,3.91-3,0-1.46-1.35-2.42-5.08-3.7-3.13-1.08-4.4-2.53-4.4-4.75,0-2.79,2.59-4.35,5.84-4.35a39.55,39.55,0,0,1,4.21.61c.35,0,.68.07,1-.18s.49,0,.49.1c0,1.49.14,3,.3,4.45,0,.25-.46.3-.54,0-.76-2.49-2.46-4-4.6-4-2.62,0-3.62,1.11-3.62,2.52s.76,1.83,4.33,3.09c3.27,1.16,5.32,2.69,5.32,5.48C129.7,23.74,127.35,25.12,123.35,25.12Z"></path></g></g></svg>